<svg version="1.1" xmlns="http://www.w3.org/2000/svg" xmlns:xlink="http://www.w3.org/1999/xlink" stroke-linecap="round" stroke-linejoin="round" stroke-width="0" fill-rule="evenodd" clip-rule="evenodd" id="bf0JKQkEV43T_top" viewBox="120396 -91440 37465 16510" width="37.465mm" height="16.51mm"><defs><style>.bf0JKQkEV43T_fr4 {color: #666666;}
.bf0JKQkEV43T_cu {color: #cccccc;}
.bf0JKQkEV43T_cf {color: #cc9933;}
.bf0JKQkEV43T_sm {color: #004200; opacity: 0.7490196078431373;}
.bf0JKQkEV43T_ss {color: #ffffff;}
.bf0JKQkEV43T_sp {color: #999999;}
.bf0JKQkEV43T_out {color: #000000;}</style><rect x="-760" y="-760" width="1520" height="1520" id="_Lo3KH6dY2_T_pad-10"/><circle cx="0" cy="0" r="760" id="_Lo3KH6dY2_T_pad-11"/><rect x="-750" y="-750" width="1500" height="1500" id="_Lo3KH6dY2_T_pad-12"/><circle cx="0" cy="0" r="750" id="_Lo3KH6dY2_T_pad-13"/><circle cx="0" cy="0" r="1100" id="eFZLR04kpVnw_pad-10"/><circle cx="0" cy="0" r="1625" id="eFZLR04kpVnw_pad-11"/><rect x="-760" y="-760" width="1520" height="1520" id="eFZLR04kpVnw_pad-12"/><circle cx="0" cy="0" r="760" id="eFZLR04kpVnw_pad-13"/><circle cx="0" cy="0" r="1600" id="eFZLR04kpVnw_pad-14"/><rect x="-750" y="-750" width="1500" height="1500" id="eFZLR04kpVnw_pad-15"/><circle cx="0" cy="0" r="750" id="eFZLR04kpVnw_pad-16"/><circle cx="0" cy="0" r="43.3" id="MgD97p69GL0E_pad-1"/><circle cx="0" cy="0" r="63" id="MgD97p69GL0E_pad-2"/><circle cx="0" cy="0" r="64" id="MgD97p69GL0E_pad-3"/><circle cx="0" cy="0" r="14.95" id="KQ5gA9zkzj2G_pad-1"/><g id="bf0JKQkEV43T_top_copper"><use xlink:href="#_Lo3KH6dY2_T_pad-10" x="134620" y="-80015"/><use xlink:href="#_Lo3KH6dY2_T_pad-11" x="132080" y="-81285"/><use xlink:href="#_Lo3KH6dY2_T_pad-11" x="134620" y="-82555"/><use xlink:href="#_Lo3KH6dY2_T_pad-11" x="132080" y="-83825"/><use xlink:href="#_Lo3KH6dY2_T_pad-11" x="134620" y="-85095"/><use xlink:href="#_Lo3KH6dY2_T_pad-11" x="132080" y="-86365"/><use xlink:href="#_Lo3KH6dY2_T_pad-12" x="146284" y="-87630"/><use xlink:href="#_Lo3KH6dY2_T_pad-13" x="143744" y="-86360"/><use xlink:href="#_Lo3KH6dY2_T_pad-13" x="146284" y="-85090"/><use xlink:href="#_Lo3KH6dY2_T_pad-13" x="143744" y="-83820"/><use xlink:href="#_Lo3KH6dY2_T_pad-13" x="146284" y="-82550"/><use xlink:href="#_Lo3KH6dY2_T_pad-13" x="143744" y="-81280"/><use xlink:href="#_Lo3KH6dY2_T_pad-13" x="146284" y="-80010"/><use xlink:href="#_Lo3KH6dY2_T_pad-13" x="143744" y="-78740"/><path d="M 145034 -83800 146284 -82550 M 132080 -83825 133350 -85095 M 133350 -88036.4 134398.6 -89085 144087 -89085 M 145034 -88138 145034 -83800 M 133350 -85095 133350 -88036.4 M 144087 -89085 145034 -88138 M 134620 -87627.208 135627.792 -88635 M 142484 -87640 142484 -82540 M 141489 -88635 142484 -87640 M 135627.792 -88635 141489 -88635 M 134620 -85095 134620 -87627.208 M 142484 -82540 143744 -81280 M 147574 -81300 147574 -88646 M 146284 -80010 147574 -81300 M 146685 -89535 133096 -89535 132080 -88519 M 147574 -88646 146685 -89535 M 132080 -88519 132080 -86365" fill="none" stroke-width="250"/></g><g id="bf0JKQkEV43T_top_soldermask"><use xlink:href="#eFZLR04kpVnw_pad-10" x="139192" y="-83185"/><use xlink:href="#eFZLR04kpVnw_pad-11" x="125730" y="-88265"/><use xlink:href="#eFZLR04kpVnw_pad-11" x="125730" y="-78105"/><use xlink:href="#eFZLR04kpVnw_pad-12" x="134620" y="-80015"/><use xlink:href="#eFZLR04kpVnw_pad-13" x="132080" y="-81285"/><use xlink:href="#eFZLR04kpVnw_pad-13" x="134620" y="-82555"/><use xlink:href="#eFZLR04kpVnw_pad-13" x="132080" y="-83825"/><use xlink:href="#eFZLR04kpVnw_pad-13" x="134620" y="-85095"/><use xlink:href="#eFZLR04kpVnw_pad-13" x="132080" y="-86365"/><use xlink:href="#eFZLR04kpVnw_pad-14" x="152634" y="-77470"/><use xlink:href="#eFZLR04kpVnw_pad-14" x="152634" y="-88900"/><use xlink:href="#eFZLR04kpVnw_pad-15" x="146284" y="-87630"/><use xlink:href="#eFZLR04kpVnw_pad-16" x="143744" y="-86360"/><use xlink:href="#eFZLR04kpVnw_pad-16" x="146284" y="-85090"/><use xlink:href="#eFZLR04kpVnw_pad-16" x="143744" y="-83820"/><use xlink:href="#eFZLR04kpVnw_pad-16" x="146284" y="-82550"/><use xlink:href="#eFZLR04kpVnw_pad-16" x="143744" y="-81280"/><use xlink:href="#eFZLR04kpVnw_pad-16" x="146284" y="-80010"/><use xlink:href="#eFZLR04kpVnw_pad-16" x="143744" y="-78740"/></g><g id="bf0JKQkEV43T_top_silkscreen"><path d="M 126830 -76585 135850 -76585 M 117850 -89785 124630 -89785 M 117850 -76585 124630 -76585" fill="none" stroke-width="120"/><path d="M 126900 -76585 126830 -76585" fill="none" stroke-width="100"/><path d="M 135850 -76585 135850 -89785 M 133850 -76115 135380 -76115" fill="none" stroke-width="120"/><path d="M 117970 -89785 117850 -89785" fill="none" stroke-width="100"/><path d="M 117850 -89785 117850 -76585 M 135850 -89785 126830 -89785" fill="none" stroke-width="120"/><path d="M 117860 -89785 117850 -89785" fill="none" stroke-width="100"/><path d="M 160364 -90945 160364 -75425 M 145784 -91630 146784 -91630 M 146284 -91130 145784 -91630 M 142404 -75425 160364 -75425 M 142404 -75425 142404 -90945 M 146784 -91630 146284 -91130 M 142404 -90945 160364 -90945" fill="none" stroke-width="120"/></g><g id="bf0JKQkEV43T_top_drill1" transform="scale(25.4,25.4)"><use xlink:href="#MgD97p69GL0E_pad-1" x="5480" y="-3275"/><use xlink:href="#MgD97p69GL0E_pad-2" x="6009.2" y="-3050"/><use xlink:href="#MgD97p69GL0E_pad-2" x="6009.2" y="-3500"/><use xlink:href="#MgD97p69GL0E_pad-3" x="4950" y="-3075"/><use xlink:href="#MgD97p69GL0E_pad-3" x="4950" y="-3475"/></g><g id="bf0JKQkEV43T_top_drill2" transform="scale(25.4,25.4)"><use xlink:href="#KQ5gA9zkzj2G_pad-1" x="5200" y="-3200.2"/><use xlink:href="#KQ5gA9zkzj2G_pad-1" x="5200" y="-3300.2"/><use xlink:href="#KQ5gA9zkzj2G_pad-1" x="5200" y="-3400.2"/><use xlink:href="#KQ5gA9zkzj2G_pad-1" x="5300" y="-3150.2"/><use xlink:href="#KQ5gA9zkzj2G_pad-1" x="5300" y="-3250.2"/><use xlink:href="#KQ5gA9zkzj2G_pad-1" x="5300" y="-3350.2"/><use xlink:href="#KQ5gA9zkzj2G_pad-1" x="5659.2" y="-3100"/><use xlink:href="#KQ5gA9zkzj2G_pad-1" x="5659.2" y="-3200"/><use xlink:href="#KQ5gA9zkzj2G_pad-1" x="5659.2" y="-3300"/><use xlink:href="#KQ5gA9zkzj2G_pad-1" x="5659.2" y="-3400"/><use xlink:href="#KQ5gA9zkzj2G_pad-1" x="5759.2" y="-3150"/><use xlink:href="#KQ5gA9zkzj2G_pad-1" x="5759.2" y="-3250"/><use xlink:href="#KQ5gA9zkzj2G_pad-1" x="5759.2" y="-3350"/><use xlink:href="#KQ5gA9zkzj2G_pad-1" x="5759.2" y="-3450"/></g><clipPath id="bf0JKQkEV43T_top_outline"><path d="M 120396 -74930 157861 -74930 157861 -91440 120396 -91440 120396 -74930" fill="none" stroke-width="100"/></clipPath><mask id="bf0JKQkEV43T_top_mech-mask"><g fill="#000" stroke="#000"><rect x="120396" y="-91440" width="37465" height="16510" fill="#fff"/><use xlink:href="#bf0JKQkEV43T_top_drill1"/><use xlink:href="#bf0JKQkEV43T_top_drill2"/></g></mask><mask id="bf0JKQkEV43T_top_cf-mask"><g fill="#fff" stroke="#fff"><use xlink:href="#bf0JKQkEV43T_top_soldermask"/></g></mask><mask id="bf0JKQkEV43T_top_sm-mask"><g fill="#000" stroke="#000"><rect x="120396" y="-91440" width="37465" height="16510" fill="#fff"/><use xlink:href="#bf0JKQkEV43T_top_soldermask"/></g></mask></defs><g transform="translate(0,-166370) scale(1,-1)"><g mask="url(#bf0JKQkEV43T_top_mech-mask)" clip-path="url(#bf0JKQkEV43T_top_outline)"><rect x="120396" y="-91440" width="37465" height="16510" fill="currentColor" class="bf0JKQkEV43T_fr4"/><use xlink:href="#bf0JKQkEV43T_top_copper" fill="currentColor" stroke="currentColor" class="bf0JKQkEV43T_cu"/><use xlink:href="#bf0JKQkEV43T_top_copper" fill="currentColor" stroke="currentColor" class="bf0JKQkEV43T_cf" mask="url(#bf0JKQkEV43T_top_cf-mask)"/><g mask="url(#bf0JKQkEV43T_top_sm-mask)"><rect x="120396" y="-91440" width="37465" height="16510" fill="currentColor" class="bf0JKQkEV43T_sm"/><use xlink:href="#bf0JKQkEV43T_top_silkscreen" fill="currentColor" stroke="currentColor" class="bf0JKQkEV43T_ss"/></g></g></g></svg>