<svg version="1.1" xmlns="http://www.w3.org/2000/svg" xmlns:xlink="http://www.w3.org/1999/xlink" stroke-linecap="round" stroke-linejoin="round" stroke-width="0" fill-rule="evenodd" clip-rule="evenodd" id="bf0JKQkEV43T_bottom" viewBox="120396 -91440 37465 16510" width="37.465mm" height="16.51mm"><defs><style>.bf0JKQkEV43T_fr4 {color: #666666;}
.bf0JKQkEV43T_cu {color: #cccccc;}
.bf0JKQkEV43T_cf {color: #cc9933;}
.bf0JKQkEV43T_sm {color: #004200; opacity: 0.7490196078431373;}
.bf0JKQkEV43T_ss {color: #ffffff;}
.bf0JKQkEV43T_sp {color: #999999;}
.bf0JKQkEV43T_out {color: #000000;}</style><rect x="-760" y="-760" width="1520" height="1520" id="OIJQA6Bg2s2-_pad-10"/><circle cx="0" cy="0" r="760" id="OIJQA6Bg2s2-_pad-11"/><rect x="-750" y="-750" width="1500" height="1500" id="OIJQA6Bg2s2-_pad-12"/><circle cx="0" cy="0" r="750" id="OIJQA6Bg2s2-_pad-13"/><circle cx="0" cy="0" r="1100" id="VszF2U2Jtzk9_pad-10"/><circle cx="0" cy="0" r="1625" id="VszF2U2Jtzk9_pad-11"/><rect x="-760" y="-760" width="1520" height="1520" id="VszF2U2Jtzk9_pad-12"/><circle cx="0" cy="0" r="760" id="VszF2U2Jtzk9_pad-13"/><circle cx="0" cy="0" r="1600" id="VszF2U2Jtzk9_pad-14"/><rect x="-750" y="-750" width="1500" height="1500" id="VszF2U2Jtzk9_pad-15"/><circle cx="0" cy="0" r="750" id="VszF2U2Jtzk9_pad-16"/><circle cx="0" cy="0" r="43.3" id="MgD97p69GL0E_pad-1"/><circle cx="0" cy="0" r="63" id="MgD97p69GL0E_pad-2"/><circle cx="0" cy="0" r="64" id="MgD97p69GL0E_pad-3"/><circle cx="0" cy="0" r="14.95" id="KQ5gA9zkzj2G_pad-1"/><g id="bf0JKQkEV43T_bottom_copper"><use xlink:href="#OIJQA6Bg2s2-_pad-10" x="134620" y="-80015"/><use xlink:href="#OIJQA6Bg2s2-_pad-11" x="132080" y="-81285"/><use xlink:href="#OIJQA6Bg2s2-_pad-11" x="134620" y="-82555"/><use xlink:href="#OIJQA6Bg2s2-_pad-11" x="132080" y="-83825"/><use xlink:href="#OIJQA6Bg2s2-_pad-11" x="134620" y="-85095"/><use xlink:href="#OIJQA6Bg2s2-_pad-11" x="132080" y="-86365"/><use xlink:href="#OIJQA6Bg2s2-_pad-12" x="146284" y="-87630"/><use xlink:href="#OIJQA6Bg2s2-_pad-13" x="143744" y="-86360"/><use xlink:href="#OIJQA6Bg2s2-_pad-13" x="146284" y="-85090"/><use xlink:href="#OIJQA6Bg2s2-_pad-13" x="143744" y="-83820"/><use xlink:href="#OIJQA6Bg2s2-_pad-13" x="146284" y="-82550"/><use xlink:href="#OIJQA6Bg2s2-_pad-13" x="143744" y="-81280"/><use xlink:href="#OIJQA6Bg2s2-_pad-13" x="146284" y="-80010"/><use xlink:href="#OIJQA6Bg2s2-_pad-13" x="143744" y="-78740"/><path d="M 134620 -78689.2 135599.6 -77709.6 M 142484 -85100 143744 -86360 M 141463.6 -77709.6 142494 -78740 M 142494 -79609 142484 -79619 142484 -85100 M 142494 -78740 142494 -79609 M 134620 -80015 134620 -78689.2 M 135599.6 -77709.6 141463.6 -77709.6 M 132080 -77774.8 132080 -81285 M 133045.2 -76809.6 132080 -77774.8 M 147574 -77774.8 146608.8 -76809.6 M 147574 -83800 147574 -77774.8 M 146284 -85090 147574 -83800 M 146608.8 -76809.6 133045.2 -76809.6 M 133350 -78181.2 134271.6 -77259.6 M 134620 -82555 133350 -81285 M 145034 -78232 145034 -82530 M 133350 -81285 133350 -78181.2 M 134271.6 -77259.6 144061.6 -77259.6 M 145034 -82530 143744 -83820 M 144061.6 -77259.6 145034 -78232" fill="none" stroke-width="250"/></g><g id="bf0JKQkEV43T_bottom_soldermask"><use xlink:href="#VszF2U2Jtzk9_pad-10" x="139192" y="-83185"/><use xlink:href="#VszF2U2Jtzk9_pad-11" x="125730" y="-88265"/><use xlink:href="#VszF2U2Jtzk9_pad-11" x="125730" y="-78105"/><use xlink:href="#VszF2U2Jtzk9_pad-12" x="134620" y="-80015"/><use xlink:href="#VszF2U2Jtzk9_pad-13" x="132080" y="-81285"/><use xlink:href="#VszF2U2Jtzk9_pad-13" x="134620" y="-82555"/><use xlink:href="#VszF2U2Jtzk9_pad-13" x="132080" y="-83825"/><use xlink:href="#VszF2U2Jtzk9_pad-13" x="134620" y="-85095"/><use xlink:href="#VszF2U2Jtzk9_pad-13" x="132080" y="-86365"/><use xlink:href="#VszF2U2Jtzk9_pad-14" x="152634" y="-77470"/><use xlink:href="#VszF2U2Jtzk9_pad-14" x="152634" y="-88900"/><use xlink:href="#VszF2U2Jtzk9_pad-15" x="146284" y="-87630"/><use xlink:href="#VszF2U2Jtzk9_pad-16" x="143744" y="-86360"/><use xlink:href="#VszF2U2Jtzk9_pad-16" x="146284" y="-85090"/><use xlink:href="#VszF2U2Jtzk9_pad-16" x="143744" y="-83820"/><use xlink:href="#VszF2U2Jtzk9_pad-16" x="146284" y="-82550"/><use xlink:href="#VszF2U2Jtzk9_pad-16" x="143744" y="-81280"/><use xlink:href="#VszF2U2Jtzk9_pad-16" x="146284" y="-80010"/><use xlink:href="#VszF2U2Jtzk9_pad-16" x="143744" y="-78740"/></g><g id="bf0JKQkEV43T_bottom_drill1" transform="scale(25.4,25.4)"><use xlink:href="#MgD97p69GL0E_pad-1" x="5480" y="-3275"/><use xlink:href="#MgD97p69GL0E_pad-2" x="6009.2" y="-3050"/><use xlink:href="#MgD97p69GL0E_pad-2" x="6009.2" y="-3500"/><use xlink:href="#MgD97p69GL0E_pad-3" x="4950" y="-3075"/><use xlink:href="#MgD97p69GL0E_pad-3" x="4950" y="-3475"/></g><g id="bf0JKQkEV43T_bottom_drill2" transform="scale(25.4,25.4)"><use xlink:href="#KQ5gA9zkzj2G_pad-1" x="5200" y="-3200.2"/><use xlink:href="#KQ5gA9zkzj2G_pad-1" x="5200" y="-3300.2"/><use xlink:href="#KQ5gA9zkzj2G_pad-1" x="5200" y="-3400.2"/><use xlink:href="#KQ5gA9zkzj2G_pad-1" x="5300" y="-3150.2"/><use xlink:href="#KQ5gA9zkzj2G_pad-1" x="5300" y="-3250.2"/><use xlink:href="#KQ5gA9zkzj2G_pad-1" x="5300" y="-3350.2"/><use xlink:href="#KQ5gA9zkzj2G_pad-1" x="5659.2" y="-3100"/><use xlink:href="#KQ5gA9zkzj2G_pad-1" x="5659.2" y="-3200"/><use xlink:href="#KQ5gA9zkzj2G_pad-1" x="5659.2" y="-3300"/><use xlink:href="#KQ5gA9zkzj2G_pad-1" x="5659.2" y="-3400"/><use xlink:href="#KQ5gA9zkzj2G_pad-1" x="5759.2" y="-3150"/><use xlink:href="#KQ5gA9zkzj2G_pad-1" x="5759.2" y="-3250"/><use xlink:href="#KQ5gA9zkzj2G_pad-1" x="5759.2" y="-3350"/><use xlink:href="#KQ5gA9zkzj2G_pad-1" x="5759.2" y="-3450"/></g><clipPath id="bf0JKQkEV43T_bottom_outline"><path d="M 120396 -74930 157861 -74930 157861 -91440 120396 -91440 120396 -74930" fill="none" stroke-width="100"/></clipPath><mask id="bf0JKQkEV43T_bottom_mech-mask"><g fill="#000" stroke="#000"><rect x="120396" y="-91440" width="37465" height="16510" fill="#fff"/><use xlink:href="#bf0JKQkEV43T_bottom_drill1"/><use xlink:href="#bf0JKQkEV43T_bottom_drill2"/></g></mask><mask id="bf0JKQkEV43T_bottom_cf-mask"><g fill="#fff" stroke="#fff"><use xlink:href="#bf0JKQkEV43T_bottom_soldermask"/></g></mask><mask id="bf0JKQkEV43T_bottom_sm-mask"><g fill="#000" stroke="#000"><rect x="120396" y="-91440" width="37465" height="16510" fill="#fff"/><use xlink:href="#bf0JKQkEV43T_bottom_soldermask"/></g></mask></defs><g transform="translate(0,-166370) scale(1,-1)"><g mask="url(#bf0JKQkEV43T_bottom_mech-mask)" clip-path="url(#bf0JKQkEV43T_bottom_outline)" transform="translate(278257,0) scale(-1,1)"><rect x="120396" y="-91440" width="37465" height="16510" fill="currentColor" class="bf0JKQkEV43T_fr4"/><use xlink:href="#bf0JKQkEV43T_bottom_copper" fill="currentColor" stroke="currentColor" class="bf0JKQkEV43T_cu"/><use xlink:href="#bf0JKQkEV43T_bottom_copper" fill="currentColor" stroke="currentColor" class="bf0JKQkEV43T_cf" mask="url(#bf0JKQkEV43T_bottom_cf-mask)"/><g mask="url(#bf0JKQkEV43T_bottom_sm-mask)"><rect x="120396" y="-91440" width="37465" height="16510" fill="currentColor" class="bf0JKQkEV43T_sm"/></g></g></g></svg>